<svg xmlns="http://www.w3.org/2000/svg" xmlns:xlink="http://www.w3.org/1999/xlink" viewBox="-143 -275 178 40">
  <defs>
    <style>
      .cls-1 {
        clip-path: url(#clip-logo-white);
      }

      .cls-2 {
        fill: #fff;
      }
    </style>
    <clipPath id="clip-logo-white">
      <rect x="-143" y="-275" width="178" height="40"/>
    </clipPath>
  </defs>
  <g id="logo-white" class="cls-1">
    <g id="Group_2" data-name="Group 2" transform="translate(-143 -275)">
      <path id="Path_1" data-name="Path 1" class="cls-2" d="M373.131,231.509a2.652,2.652,0,0,1-.871,1.992,2.477,2.477,0,0,1-1.992.871h-5.726a2.477,2.477,0,0,1-1.992-.871,2.652,2.652,0,0,1-.871-1.992v-17.3a5.748,5.748,0,0,0-.622-3.236c-.373-.747-1.12-1-2.241-1a5.582,5.582,0,0,0-1.369.124c-.5.125-1,.249-1.618.373v21.036a2.652,2.652,0,0,1-.871,1.992,2.477,2.477,0,0,1-1.992.871H347.24a2.477,2.477,0,0,1-1.992-.871,3,3,0,0,1-.871-2.116v-17.3a15.25,15.25,0,0,0-.249-2.365,2.434,2.434,0,0,0-1-1.618,2.336,2.336,0,0,0-1.618-.373,8.168,8.168,0,0,0-2.863.5V231.26a2.477,2.477,0,0,1-.871,1.992,2.652,2.652,0,0,1-1.992.871h-5.726a2.477,2.477,0,0,1-1.992-.871,3,3,0,0,1-.871-2.116v-22.9a2.7,2.7,0,0,1,.622-1.743,2.434,2.434,0,0,1,1.618-1c1.867-.373,3.859-.747,6.1-1a58.492,58.492,0,0,1,5.85-.5,32.752,32.752,0,0,1,4.108.249,25.474,25.474,0,0,1,3.485.747c1.618-.249,3.112-.5,4.73-.747,1.494-.124,3.236-.249,4.979-.249a31.93,31.93,0,0,1,6.224.622,10.773,10.773,0,0,1,4.979,2.241,8.746,8.746,0,0,1,3.361,7.219v17.426Z" transform="translate(-327.2 -204)"/>
      <path id="Path_2" data-name="Path 2" class="cls-2" d="M395.878,231.46a2.7,2.7,0,0,1-.622,1.743,2.434,2.434,0,0,1-1.618,1,41.039,41.039,0,0,1-6.1,1.12,54.534,54.534,0,0,1-5.85.373,30.385,30.385,0,0,1-6.348-.622,10.908,10.908,0,0,1-4.854-2.241,9.022,9.022,0,0,1-3.485-7.22V208.432a2.7,2.7,0,0,1,.622-1.743,2.434,2.434,0,0,1,1.618-1,41.043,41.043,0,0,1,6.1-1.12,54.538,54.538,0,0,1,5.85-.373,30.384,30.384,0,0,1,6.348.622,10.908,10.908,0,0,1,4.854,2.241,8.684,8.684,0,0,1,3.485,7.219ZM379.2,228.97c.373.747,1.12,1,2.365,1a8.168,8.168,0,0,0,2.863-.5v-15.31a11.456,11.456,0,0,0-.249-2.365,2.478,2.478,0,0,0-1-1.494,2.336,2.336,0,0,0-1.618-.373,5.582,5.582,0,0,0-1.369.124c-.5.124-1,.249-1.618.373V225.61a8.843,8.843,0,0,0,.622,3.361" transform="translate(-317.459 -203.887)"/>
      <path id="Path_3" data-name="Path 3" class="cls-2" d="M421.953,219.739c0,5.1-1.743,9.087-5.1,11.7a14.956,14.956,0,0,1-5.85,2.738,31.4,31.4,0,0,1-12.2.5c-1.494-.249-2.614-.373-3.485-.622a2.692,2.692,0,0,1-2.116-2.863v-22.9a2.73,2.73,0,0,1,.871-2.116,3,3,0,0,1,2.116-.871h5.726a2.477,2.477,0,0,1,1.992.871,3,3,0,0,1,.871,2.116v19.667a8.129,8.129,0,0,0,3.859-2.365,8.738,8.738,0,0,0,1.992-5.85V208.287a2.73,2.73,0,0,1,.871-2.116,2.937,2.937,0,0,1,1.992-.871h5.726a2.73,2.73,0,0,1,2.116.871,3,3,0,0,1,.871,2.116v11.452Z" transform="translate(-311.047 -203.265)"/>
      <path id="Path_4" data-name="Path 4" class="cls-2" d="M474.3,231.509a2.7,2.7,0,0,1-.622,1.743,2.434,2.434,0,0,1-1.618,1,41.039,41.039,0,0,1-6.1,1.12,52.665,52.665,0,0,1-5.85.373,30.385,30.385,0,0,1-6.348-.622,10.908,10.908,0,0,1-4.854-2.241,9.022,9.022,0,0,1-3.485-7.22,8.37,8.37,0,0,1,3.485-7.219,10.432,10.432,0,0,1,4.73-1.992,40.319,40.319,0,0,1,9.087-.747v-1.618a5.365,5.365,0,0,0-.373-2.116,3.161,3.161,0,0,0-1-1.245,4.155,4.155,0,0,0-1.494-.622L458,209.726a25.742,25.742,0,0,0-4.357.373c-1.494.249-3.112.622-4.73,1a2.105,2.105,0,0,1-1.743,0,2.71,2.71,0,0,1-1.12-.871,5.047,5.047,0,0,1-.622-1.12,2.191,2.191,0,0,1-.124-.747,2.861,2.861,0,0,1,1.992-2.738c1.369-.373,3.112-.747,5.1-1.12a29.791,29.791,0,0,1,5.477-.5,42.984,42.984,0,0,1,7.468.622,12.235,12.235,0,0,1,5.352,2.241,8.684,8.684,0,0,1,3.485,7.22v17.426Zm-14.563-9.958a1.925,1.925,0,0,0-2.116,1.12,6.271,6.271,0,0,0-.622,3.236,6.7,6.7,0,0,0,.622,3.236c.373.747,1.12,1,2.365,1a8.168,8.168,0,0,0,2.863-.5v-7.593a9.53,9.53,0,0,0-3.112-.5" transform="translate(-298.296 -204)"/>
      <path id="Path_5" data-name="Path 5" class="cls-2" d="M447.331,206.171a3,3,0,0,0-2.116-.871h-5.726a2.477,2.477,0,0,0-1.992.871,3,3,0,0,0-.871,2.116v19.667a8.129,8.129,0,0,1-3.859-2.365,8.738,8.738,0,0,1-1.992-5.85V208.287a2.73,2.73,0,0,0-.871-2.116,2.938,2.938,0,0,0-1.992-.871h-5.726a2.73,2.73,0,0,0-2.116.871,3,3,0,0,0-.871,2.116v11.452c0,5.1,1.743,9.087,5.1,11.7a14.956,14.956,0,0,0,5.85,2.738,25.817,25.817,0,0,0,6.224.747v5.352a2.915,2.915,0,0,0,.871,2.116,2.73,2.73,0,0,0,2.116.871h5.726a2.477,2.477,0,0,0,1.992-.871,3.205,3.205,0,0,0,.871-1.992V208.287a2.208,2.208,0,0,0-.622-2.116" transform="translate(-304.684 -203.265)"/>
    </g>
  </g>
</svg>
